<svg width="416" height="449" viewBox="0 0 416 449" fill="none" xmlns="http://www.w3.org/2000/svg">
<path d="M392.9 104.298C393.504 103.946 394.005 103.441 394.353 102.835C394.701 102.229 394.884 101.542 394.884 100.843C394.884 100.144 394.701 99.4572 394.353 98.851C394.005 98.2447 393.504 97.7404 392.9 97.3881L240.16 8.64809C230.387 2.98329 219.291 0 207.995 0C196.699 0 185.603 2.98329 175.83 8.64809L23.1201 97.3881C22.5163 97.7404 22.0153 98.2447 21.6671 98.851C21.319 99.4572 21.1358 100.144 21.1358 100.843C21.1358 101.542 21.319 102.229 21.6671 102.835C22.0153 103.441 22.5163 103.946 23.1201 104.298L206 211.878C206.615 212.24 207.316 212.431 208.03 212.431C208.744 212.431 209.445 212.24 210.06 211.878L392.9 104.298ZM6.00008 131.508C5.3901 131.156 4.69794 130.971 3.99359 130.972C3.28923 130.973 2.59766 131.16 1.98882 131.515C1.37997 131.869 0.875432 132.377 0.526222 132.989C0.177013 133.601 -0.00448479 134.294 8.4179e-05 134.998V308.888C0.0151812 317.268 2.22377 325.498 6.40621 332.759C10.5887 340.02 16.5992 346.06 23.8401 350.278L186 447.508C186.608 447.859 187.297 448.044 187.999 448.044C188.701 448.044 189.39 447.86 189.998 447.509C190.606 447.159 191.111 446.654 191.463 446.047C191.814 445.439 191.999 444.75 192 444.048V242.298C191.999 241.597 191.814 240.908 191.463 240.3C191.112 239.693 190.608 239.189 190 238.838L6.00008 131.508ZM224 242.998V443.998C224.001 444.7 224.186 445.389 224.538 445.997C224.889 446.604 225.394 447.109 226.002 447.459C226.61 447.81 227.299 447.994 228.001 447.994C228.703 447.994 229.392 447.809 230 447.458L392.15 350.228C399.386 346.016 405.393 339.984 409.577 332.732C413.761 325.48 415.975 317.26 416 308.888V134.998C415.998 134.297 415.811 133.609 415.459 133.003C415.107 132.397 414.602 131.894 413.994 131.545C413.386 131.195 412.698 131.012 411.997 131.012C411.296 131.013 410.607 131.198 410 131.548L226 239.548C225.394 239.898 224.89 240.401 224.54 241.006C224.189 241.611 224.003 242.298 224 242.998Z" fill="#1291EE"/>
</svg>
